<svg xmlns="http://www.w3.org/2000/svg" xmlns:xlink="http://www.w3.org/1999/xlink" width="100" height="100" viewBox="0,0,100,100"><defs><linearGradient x1="227.40639" y1="133" x2="252.59361" y2="227" gradientUnits="userSpaceOnUse" id="color-1"><stop offset="0" stop-color="#292929"/><stop offset="0.47754" stop-color="#000"/></linearGradient></defs><g transform="translate(-190,-130)"><g stroke="none" stroke-width="0" stroke-miterlimit="10"><path d="M190,230v-100h100v100z" fill="none"/><path d="M193,180c0,-25.95738 21.04262,-47 47,-47c25.95738,0 47,21.04262 47,47c0,25.95738 -21.04262,47 -47,47c-25.95738,0 -47,-21.04262 -47,-47zM240,220.33334c22.27549,0 40.33333,-18.05785 40.33333,-40.33334c0,-22.27549 -18.05785,-40.33334 -40.33333,-40.33334c-22.27549,0 -40.33334,18.05785 -40.33334,40.33334c0,22.27549 18.05785,40.33334 40.33334,40.33334zM233.79404,180c0,-2.21744 1.16297,-4.16324 2.91224,-5.26076v-21.7354c0,-2.76142 1.47465,-5 3.29372,-5c1.81907,0 3.29372,2.23858 3.29372,5v21.7354c1.74927,1.09752 2.91224,3.04332 2.91224,5.26076c0,0.30857 -0.02252,0.61188 -0.06601,0.90837l10.67674,10.67674c1.95262,1.95262 2.29418,4.77689 0.7629,6.30817c-1.53128,1.53128 -4.35555,1.18972 -6.30817,-0.7629l-10.93347,-10.93347c-0.11189,0.006 -0.22457,0.00905 -0.33795,0.00905c-3.42746,0 -6.20596,-2.7785 -6.20596,-6.20596z" fill="url(#color-1)"/></g></g></svg>