<svg xmlns="http://www.w3.org/2000/svg" xmlns:xlink="http://www.w3.org/1999/xlink" width="100" height="100" viewBox="0,0,100,100"><defs><linearGradient x1="229.54998" y1="141" x2="250.45002" y2="219" gradientUnits="userSpaceOnUse" id="color-1"><stop offset="0" stop-color="#7aa9ff"/><stop offset="0.47754" stop-color="#7aa9ff"/></linearGradient></defs><g transform="translate(-190,-130)"><g stroke="none" stroke-width="0" stroke-miterlimit="10"><path d="M190,230v-100h100v100z" fill="none"/><path d="" fill="#7aa9ff"/><path d="M200,184.75c-2.76143,0 -5,-2.12664 -5,-4.75c0,-2.62336 2.23857,-4.75 5,-4.75h51.57561c1.77269,-3.69708 5.55041,-6.25 9.92439,-6.25c4.37398,0 8.1517,2.55292 9.92439,6.25h8.57561c2.76142,0 5,2.12664 5,4.75c0,2.62336 -2.23858,4.75 -5,4.75h-8.57561c-1.77269,3.69708 -5.55041,6.25 -9.92439,6.25c-4.37398,0 -8.1517,-2.55292 -9.92439,-6.25zM200,156.75c-2.76143,0 -5,-2.12664 -5,-4.75c0,-2.62336 2.23857,-4.75 5,-4.75h3.07561c1.77269,-3.69708 5.55041,-6.25 9.92439,-6.25c4.37398,0 8.1517,2.55292 9.92439,6.25h57.07561c2.76142,0 5,2.12664 5,4.75c0,2.62336 -2.23858,4.75 -5,4.75h-57.07561c-1.77269,3.69708 -5.55041,6.25 -9.92439,6.25c-4.37398,0 -8.1517,-2.55292 -9.92439,-6.25zM200,212.75c-2.76143,0 -5,-2.12664 -5,-4.75c0,-2.62336 2.23857,-4.75 5,-4.75h20.07561c1.77269,-3.69708 5.55041,-6.25 9.92439,-6.25c4.37398,0 8.1517,2.55292 9.92439,6.25h40.07561c2.76142,0 5,2.12664 5,4.75c0,2.62336 -2.23858,4.75 -5,4.75h-40.07561c-1.77269,3.69708 -5.55041,6.25 -9.92439,6.25c-4.37398,0 -8.1517,-2.55292 -9.92439,-6.25zM213.13334,158.45c3.54382,0 6.41667,-2.87284 6.41667,-6.41666c0,-3.54382 -2.87285,-6.41666 -6.41667,-6.41666c-3.54382,0 -6.41666,2.87284 -6.41666,6.41666c0,3.54382 2.87284,6.41666 6.41666,6.41666zM261.55073,186.52767c3.54383,0 6.41667,-2.87284 6.41667,-6.41667c0,-3.54382 -2.87284,-6.41666 -6.41667,-6.41666c-3.54383,0 -6.41667,2.87284 -6.41667,6.41666c0,3.54382 2.87284,6.41667 6.41667,6.41667zM229.93572,214.38425c3.54383,0 6.41667,-2.87284 6.41667,-6.41666c0,-3.54382 -2.87284,-6.41667 -6.41667,-6.41667c-3.54383,0 -6.41667,2.87284 -6.41667,6.41667c0,3.54382 2.87284,6.41666 6.41667,6.41666z" fill="url(#color-1)"/></g></g></svg>