<svg xmlns="http://www.w3.org/2000/svg" xmlns:xlink="http://www.w3.org/1999/xlink" width="100" height="100" viewBox="0,0,100,100"><defs><linearGradient x1="230.08588" y1="143.00001" x2="249.91412" y2="217" gradientUnits="userSpaceOnUse" id="color-1"><stop offset="0" stop-color="#292929"/><stop offset="0.47754" stop-color="#000"/></linearGradient></defs><g transform="translate(-190,-130)"><g stroke="none" stroke-width="0" stroke-miterlimit="10"><path d="M190,230v-100h100v100z" fill="none"/><path d="M211.85265,197.92111c-10.10928,-17.99776 -3.7144,-40.783 14.28335,-50.89229c2.81181,-1.57939 5.75038,-2.7196 8.71941,-3.54834c6.948,-1.93937 4.6794,2.49057 3.75875,4.44009c-4.99329,10.5735 -4.96377,23.32395 1.19881,34.29532c6.34825,11.30192 17.69512,18.0284 29.71612,18.96573c1.79998,0.14035 5.79707,0.18807 1.47441,4.74366c-2.33683,2.46275 -5.1515,4.53395 -8.25856,6.27917c-17.99776,10.10928 -40.783,3.7144 -50.89229,-14.28335z" fill="url(#color-1)"/></g></g></svg>