<svg xmlns="http://www.w3.org/2000/svg" xmlns:xlink="http://www.w3.org/1999/xlink" width="100" height="100" viewBox="0,0,100,100"><defs><linearGradient x1="230.04563" y1="142.84975" x2="249.95438" y2="217.15025" gradientUnits="userSpaceOnUse" id="color-1"><stop offset="0" stop-color="#292929"/><stop offset="0.47754" stop-color="#000"/></linearGradient></defs><g transform="translate(-190,-130)"><g stroke="none" stroke-width="0" stroke-miterlimit="10"><path d="M190,230v-100h100v100z" fill="none"/><path d="M206.26581,160.8604c0,-9.94701 8.06364,-18.01065 18.01065,-18.01065c9.94701,0 18.01065,8.06364 18.01065,18.01065c0,9.94701 -8.06364,18.01065 -18.01065,18.01065c-9.94701,0 -18.01065,-8.06364 -18.01065,-18.01065zM246.25463,171.58398c0,-7.91187 6.41384,-14.32571 14.32571,-14.32571c7.91187,0 14.32571,6.41384 14.32571,14.32571c0,7.91187 -6.41384,14.32571 -14.32571,14.32571c-7.91187,0 -14.32571,-6.41384 -14.32571,-14.32571zM224.27647,183.32312c15.51319,0 28.26419,14.8414 29.729,33.82713h-59.45801c1.46481,-18.98573 14.21579,-33.82713 29.729,-33.82713zM260.58034,190.24407c12.97883,0 23.6467,11.80488 24.87221,26.90618c0,0 -18.40716,0 -27.10797,0c-0.1865,0 -0.53647,-0.01178 -0.53647,-0.01178c0,0 -0.51056,-7.62659 -2.36257,-13.37075c-1.85202,-5.74416 -5.87309,-10.48097 -5.87309,-10.48097c0,0 0.29562,-0.17291 0.4542,-0.26119c3.20613,-1.78473 6.78235,-2.78148 10.55369,-2.78148z" fill="url(#color-1)"/></g></g></svg>