<svg xmlns="http://www.w3.org/2000/svg" xmlns:xlink="http://www.w3.org/1999/xlink" width="100" height="100" viewBox="0,0,100,100"><defs><linearGradient x1="227.12104" y1="131.9324" x2="252.88042" y2="228.06774" gradientUnits="userSpaceOnUse" id="color-1"><stop offset="0" stop-color="#7aa9ff"/><stop offset="0.47754" stop-color="#7aa9ff"/></linearGradient><linearGradient x1="227.12104" y1="131.9324" x2="252.88042" y2="228.06774" gradientUnits="userSpaceOnUse" id="color-2"><stop offset="0" stop-color="#7aa9ff"/><stop offset="0.47754" stop-color="#7aa9ff"/></linearGradient></defs><g transform="translate(-190,-130)"><g stroke-miterlimit="10"><path d="M190,230v-100h100v100z" fill="none" stroke="none" stroke-width="0"/><path d="M218.49635,210.28732c0.21023,-0.65047 0.03698,-1.35747 -0.44388,-1.84142l-6.51084,-6.51733c-0.48086,-0.48395 -1.19434,-0.65404 -1.84002,-0.44539l-10.23201,3.32629c-1.68214,0.54635 -3.5058,-0.28924 -4.18492,-1.93052l-3.09312,-7.47546c-0.67742,-1.63718 0.02099,-3.52112 1.60027,-4.32185l9.59086,-4.87582c0.60313,-0.30568 0.98904,-0.93305 0.98617,-1.61238l0.00351,-9.21502c-0.00167,-0.68223 -0.3815,-1.30615 -0.98987,-1.61791l-9.58291,-4.87683c-1.57905,-0.80361 -2.27662,-2.68734 -1.59769,-4.32465l3.09947,-7.47478c0.67893,-1.63731 2.505,-2.4746 4.18919,-1.92508l10.22317,3.33274c0.64952,0.21301 1.35924,0.04088 1.84319,-0.43998l6.51846,-6.51355c0.48395,-0.48086 0.65291,-1.19163 0.44539,-1.84001l-3.32748,-10.22911c-0.54925,-1.68334 0.28923,-3.50581 1.92762,-4.18612l7.47546,-3.09312c1.64008,-0.67622 3.52113,0.02099 4.32306,1.59738l4.87581,9.59086c0.30857,0.60433 0.93305,0.98904 1.61527,0.98737l9.21231,0.0024c0.6799,0.00394 1.30615,-0.3815 1.61558,-0.98427l4.87915,-9.58851c0.80371,-1.5788 2.68903,-2.27253 4.32635,-1.5936l7.47189,3.09827c1.63731,0.67893 2.4758,2.5021 1.92917,4.1875l-3.33535,10.22845c-0.21069,0.64392 -0.04359,1.35812 0.4423,1.83759l6.51084,6.51733c0.48086,0.48395 1.19145,0.65284 1.83713,0.44419l10.23201,-3.32629c1.68503,-0.54515 3.5075,0.29332 4.18492,1.93051l3.09312,7.47546c0.67622,1.64008 -0.0181,3.52233 -1.59738,4.32306l-9.58965,4.87292c-0.60842,0.31027 -0.98904,0.93305 -0.99026,1.61408l-0.00063,9.21622c-0.00122,0.68102 0.38132,1.30608 0.9881,1.614l9.58179,4.87954c1.58176,0.80473 2.27662,2.68734 1.59769,4.32465l-3.09948,7.47478c-0.67885,1.63713 -2.50202,2.47562 -4.18857,1.92512l-10.22206,-3.33544c-0.64487,-0.2079 -1.36037,-0.03816 -1.84142,0.44389l-6.52135,6.51235c-0.47986,0.47917 -0.65284,1.19145 -0.4413,1.83832l3.32629,10.23201c0.54925,1.68334 -0.29332,3.5075 -1.93051,4.18492l-7.47546,3.09312c-1.63839,0.68031 -3.51824,-0.01979 -4.32306,-1.59738l-4.87581,-9.59085c-0.30625,-0.60992 -0.93016,-0.98785 -1.61239,-0.98618l-9.21231,-0.00239c-0.68511,0.00046 -1.30495,0.37861 -1.61399,0.9881l-4.88067,9.5845c-0.80642,1.57767 -2.68903,2.27253 -4.32634,1.5936l-7.47478,-3.09947c-1.63442,-0.67773 -2.47579,-2.5021 -1.92627,-4.1863zM224.36322,186.46949c1.73105,4.17818 4.98059,7.43112 9.15834,9.16346c4.17486,1.73114 8.77568,1.73341 12.94985,0.00387c4.17995,-1.72714 7.43,-4.97788 9.16234,-9.15562c1.73121,-4.17504 1.73612,-8.77457 0.00507,-12.95275c-1.72545,-4.17586 -4.97787,-7.43 -9.15273,-9.16114c-4.17775,-1.73234 -8.77569,-1.73341 -12.95546,-0.00619c-4.17416,1.72953 -7.42831,4.98196 -9.15944,9.15682c-1.73234,4.17775 -1.73341,8.7757 -0.00796,12.95156z" fill="url(#color-1)" stroke="url(#color-2)" stroke-width="3"/></g></g></svg>
