<svg xmlns="http://www.w3.org/2000/svg" xmlns:xlink="http://www.w3.org/1999/xlink" width="100" height="100" viewBox="0,0,100,100"><defs><linearGradient x1="230.27054" y1="143.68918" x2="249.72945" y2="216.31083" gradientUnits="userSpaceOnUse" id="color-1"><stop offset="0" stop-color="#292929"/><stop offset="0.47754" stop-color="#000"/></linearGradient></defs><g transform="translate(-190,-130)"><g stroke="none" stroke-width="0" stroke-miterlimit="10"><path d="M190,230v-100h100v100z" fill="none"/><path d="" fill="#000"/><path d="M205.73617,207.67463c-2.72933,-2.72933 -2.72933,-7.15447 0,-9.8838l17.79083,-17.79083l-17.79083,-17.79083c-2.72933,-2.72933 -2.72933,-7.15447 0,-9.8838l6.58919,-6.58919c2.72933,-2.72933 7.15447,-2.72933 9.8838,0l17.79083,17.79083l17.79083,-17.79083c2.72933,-2.72933 7.15447,-2.72933 9.8838,0l6.5892,6.5892c2.72933,2.72933 2.72933,7.15447 0,9.8838l-17.79083,17.79083l17.79083,17.79083c2.72933,2.72933 2.72933,7.15447 0,9.8838l-6.58919,6.58919c-2.72933,2.72933 -7.15447,2.72933 -9.8838,0l-17.79083,-17.79083l-17.79083,17.79083c-2.72933,2.72933 -7.15447,2.72933 -9.8838,0z" fill="url(#color-1)"/></g></g></svg>