<svg xmlns="http://www.w3.org/2000/svg" width="87.832" height="80.334" viewBox="0 0 87.832 80.334"><defs><linearGradient x1="235.647" y1="142.467" x2="235.647" y2="176.365" gradientUnits="userSpaceOnUse" id="a"><stop offset="0" stop-color="#defffb"/><stop offset="1" stop-color="#90b2af"/></linearGradient><linearGradient x1="243.339" y1="152.683" x2="243.339" y2="195.395" gradientUnits="userSpaceOnUse" id="b"><stop offset=".508" stop-color="#defffb"/><stop offset="1" stop-color="#90b2af"/></linearGradient><linearGradient x1="223.747" y1="159.416" x2="223.747" y2="188.535" gradientUnits="userSpaceOnUse" id="c"><stop offset=".508" stop-color="#defffb"/><stop offset="1" stop-color="#90b2af"/></linearGradient><linearGradient x1="222.03" y1="192.682" x2="254.935" y2="192.682" gradientUnits="userSpaceOnUse" id="d"><stop offset="0" stop-color="#4757a8"/><stop offset="1" stop-color="#3d357d"/></linearGradient><linearGradient x1="238.482" y1="167.831" x2="238.482" y2="217.533" gradientUnits="userSpaceOnUse" id="e"><stop offset="0" stop-color="#7bff7b"/><stop offset="1" stop-color="#0041ff"/></linearGradient><linearGradient x1="222.03" y1="192.682" x2="254.935" y2="192.682" gradientUnits="userSpaceOnUse" id="f"><stop offset="0" stop-color="#d97aff"/><stop offset="1" stop-color="#7abbff"/></linearGradient></defs><path d="M218.698 159.416c0-9.36 7.588-16.949 16.949-16.949 9.36 0 16.949 7.588 16.949 16.949 0 9.36-7.589 16.949-16.95 16.949s-16.948-7.588-16.948-16.949" fill="url(#a)" transform="translate(-196.084 -142.467)"/><path d="M215.576 195.395c-7.076 0-12.813-5.737-12.813-12.813s5.737-12.814 12.813-12.814c0-4.423 4.781-8.009 10.678-8.009s10.679 3.586 10.679 8.009c0-9.436 7.649-17.085 17.084-17.085 9.436 0 17.085 7.65 17.085 17.085 7.077 0 12.814 5.737 12.814 12.814 0 7.076-5.737 12.813-12.814 12.813z" fill="url(#b)" transform="translate(-196.084 -142.467)"/><path d="M204.82 188.535a8.736 8.736 0 1 1 0-17.471c0-6.433 5.215-11.648 11.647-11.648s11.648 5.215 11.648 11.648c0-3.016 3.26-5.46 7.28-5.46s7.28 2.444 7.28 5.46a8.736 8.736 0 0 1 8.735 8.735c0 4.825 10.037 14.899 5.212 14.899h-42.428c-5.182 0-9.374-6.163-9.374-6.163" fill="url(#c)" transform="translate(-196.084 -142.467)"/><path d="M222.03 184.283c0-9.086 7.366-16.452 16.452-16.452s16.453 7.366 16.453 16.452c0 9.35-16.453 33.25-16.453 33.25s-16.452-23.6-16.452-33.25zm16.452 8.996a8.062 8.062 0 1 0 0-16.123 8.062 8.062 0 0 0 0 16.123z" fill="none" stroke="url(#d)" stroke-width="6" transform="translate(-196.084 -142.467)"/><path d="M222.03 184.283c0-9.086 7.366-16.452 16.452-16.452s16.453 7.366 16.453 16.452c0 9.35-16.453 33.25-16.453 33.25s-16.452-23.6-16.452-33.25m16.452 8.996a8.062 8.062 0 1 0 0-16.123 8.062 8.062 0 0 0 0 16.123" fill="url(#e)" transform="translate(-196.084 -142.467)"/><path d="M222.03 184.283c0-9.086 7.366-16.452 16.452-16.452s16.453 7.366 16.453 16.452c0 9.35-16.453 33.25-16.453 33.25s-16.452-23.6-16.452-33.25m16.452 8.996a8.062 8.062 0 1 0 0-16.123 8.062 8.062 0 0 0 0 16.123" fill="url(#f)" style="mix-blend-mode:hard-light" transform="translate(-196.084 -142.467)"/></svg>