<svg xmlns="http://www.w3.org/2000/svg" xmlns:xlink="http://www.w3.org/1999/xlink" width="100" height="104.89124" viewBox="0,0,100,104.89124"><g transform="translate(-190,-130)"><g stroke-miterlimit="10"><path d="M201.58333,173.76044c0,-21.21694 17.19972,-38.41667 38.41667,-38.41667c21.21694,0 38.41667,17.19972 38.41667,38.41667c0,17.91404 -12.26148,32.96424 -28.84974,37.21594c-1.73485,2.59091 -6.76374,10.10133 -8.77246,13.10125c-0.52472,0.78364 -1.2051,0.71924 -1.60731,0.11856v0.00001c-1.02916,-1.537 -5.6578,-8.44965 -8.5032,-12.69913c-0.12459,-0.18608 -0.23613,-0.36704 -0.33457,-0.54223c-16.5458,-4.2808 -28.76605,-19.31049 -28.76605,-37.19439z" fill="none" stroke-opacity="0.4" stroke="#000" stroke-width="6.5"/><path d="M190,230v-100h100v100z" fill="none" stroke="none" stroke-width="0"/><path d="" fill="#000" stroke="none" stroke-width="0"/><path d="M201.58333,173.76044c0,-21.21694 17.19972,-38.41667 38.41667,-38.41667c21.21694,0 38.41667,17.19972 38.41667,38.41667c0,17.91404 -12.26148,32.96424 -28.84974,37.21594c-1.73485,2.59091 -6.76374,10.10133 -8.77246,13.10125c-0.52472,0.78364 -1.2051,0.71924 -1.60731,0.11856v0.00001c-1.02916,-1.537 -5.6578,-8.44965 -8.5032,-12.69913c-0.12459,-0.18608 -0.23613,-0.36704 -0.33457,-0.54223c-16.5458,-4.2808 -28.76605,-19.31049 -28.76605,-37.19439z" fill="#00a740" stroke="none" stroke-width="0"/><path d="M208.03499,173.76044c0,-17.65379 14.31122,-31.96501 31.96501,-31.96501c17.65379,0 31.96501,14.31122 31.96501,31.96501c0,17.65379 -14.31122,31.96501 -31.96501,31.96501c-17.65379,0 -31.96501,-14.31122 -31.96501,-31.96501z" fill="#fff" stroke="none" stroke-width="0"/><path d="M236.04386,192.0614v-8.99123h-9.71053l8.73148,-8.27193h-7.29289l7.47271,-7.91228h-4.23587l8.99123,-12.94737l8.99123,12.94737l-4.23587,0l7.47271,7.91228l-7.29288,0l8.73148,8.27193l-9.71053,0v8.99123z" fill="#00a740" stroke="none" stroke-width="0"/></g></g></svg>