<svg xmlns="http://www.w3.org/2000/svg" xmlns:xlink="http://www.w3.org/1999/xlink" width="100" height="100" viewBox="0,0,100,100"><defs><linearGradient x1="227.32109" y1="132.68164" x2="252.67892" y2="227.31837" gradientUnits="userSpaceOnUse" id="color-1"><stop offset="0" stop-color="#292929"/><stop offset="0.47754" stop-color="#000"/></linearGradient></defs><g transform="translate(-190,-130)"><g stroke="none" stroke-width="0" stroke-miterlimit="10"><path d="M190,230v-100h100v100z" fill="none"/><path d="M220.44407,180c0,-10.80044 8.75549,-19.55593 19.55593,-19.55593c10.80044,0 19.55593,8.75549 19.55593,19.55593c0,10.80044 -8.75549,19.55593 -19.55593,19.55593c-10.80044,0 -19.55593,-8.75549 -19.55593,-19.55593zM240,155.7297c-2.31438,0 -4.19056,-2.02279 -4.19056,-4.51804v-14.01198c0,-2.49525 1.87618,-4.51804 4.19056,-4.51804c2.31438,0 4.19056,2.02279 4.19056,4.51804v14.01198c0,2.49525 -1.87618,4.51804 -4.19056,4.51804zM240,227.31837c-2.31438,0 -4.19056,-2.02279 -4.19056,-4.51804v-14.01198c0,-2.49525 1.87618,-4.51804 4.19056,-4.51804c2.31438,0 4.19056,2.02279 4.19056,4.51804v14.01198c0,2.49525 -1.87618,4.51804 -4.19056,4.51804zM215.7297,180c0,2.31438 -2.02279,4.19056 -4.51804,4.19056h-14.01198c-2.49525,0 -4.51804,-1.87618 -4.51804,-4.19056c0,-2.31438 2.02279,-4.19056 4.51804,-4.19056h14.01198c2.49525,0 4.51804,1.87618 4.51804,4.19056zM287.31837,180c0,2.31438 -2.02279,4.19056 -4.51804,4.19056h-14.01198c-2.49525,0 -4.51804,-1.87618 -4.51804,-4.19056c0,-2.31438 2.02279,-4.19056 4.51804,-4.19056h14.01198c2.49525,0 4.51804,1.87618 4.51804,4.19056zM222.87766,162.02343c-1.40288,1.47286 -3.76625,1.37956 -5.27876,-0.20841l-8.49344,-8.91717c-1.51251,-1.58796 -1.60139,-4.06926 -0.19851,-5.54212c1.40288,-1.47286 3.76626,-1.37955 5.27877,0.20841l8.49344,8.91717c1.51251,1.58796 1.60138,4.06925 0.1985,5.54212zM271.09304,212.64427c-1.40288,1.47286 -3.76626,1.37955 -5.27877,-0.20841l-8.49344,-8.91717c-1.51251,-1.58796 -1.60138,-4.06925 -0.1985,-5.54212c1.40288,-1.47286 3.76625,-1.37956 5.27876,0.20841l8.49344,8.91717c1.51251,1.58796 1.60139,4.06926 0.19851,5.54212zM222.87766,197.97657c1.40288,1.47286 1.314,3.95415 -0.1985,5.54212l-8.49344,8.91717c-1.51251,1.58796 -3.87589,1.68127 -5.27877,0.20841c-1.40288,-1.47286 -1.314,-3.95416 0.19851,-5.54212l8.49344,-8.91717c1.51251,-1.58796 3.87588,-1.68127 5.27876,-0.20841zM271.09304,147.35573c1.40288,1.47286 1.314,3.95416 -0.19851,5.54212l-8.49344,8.91717c-1.51251,1.58796 -3.87588,1.68127 -5.27876,0.20841c-1.40288,-1.47286 -1.314,-3.95415 0.1985,-5.54212l8.49344,-8.91717c1.51251,-1.58796 3.87589,-1.68127 5.27877,-0.20841z" fill="url(#color-1)"/></g></g></svg>