<svg xmlns="http://www.w3.org/2000/svg" xmlns:xlink="http://www.w3.org/1999/xlink" width="100" height="100" viewBox="0,0,100,100"><defs><linearGradient x1="229.75852" y1="141.77829" x2="250.24148" y2="218.22172" gradientUnits="userSpaceOnUse" id="color-1"><stop offset="0" stop-color="#292929"/><stop offset="0.47754" stop-color="#000"/></linearGradient><linearGradient x1="229.75852" y1="141.77829" x2="250.24148" y2="218.22172" gradientUnits="userSpaceOnUse" id="color-2"><stop offset="0" stop-color="#292929"/><stop offset="0.47754" stop-color="#000"/></linearGradient></defs><g transform="translate(-190,-130)"><g stroke-miterlimit="10"><path d="M190,230v-100h100v100z" fill="none" stroke="none" stroke-width="0" stroke-linejoin="miter"/><path d="" fill="#000" stroke="none" stroke-width="0" stroke-linejoin="miter"/><path d="M243.49073,143.90297c4.41966,7.09866 24.29701,39.02477 36.5164,58.65103c5.71494,9.17908 5.03183,15.66772 -2.26666,15.66772c-21.5162,0 -65.4161,0 -76.68013,0c-5.16586,0 -6.39988,-6.42864 -2.87321,-12.09302c6.65261,-10.68513 29.47321,-47.33856 38.4011,-61.67814c2.25336,-3.61925 5.17523,-3.32182 6.9025,-0.54756zM242.4956,211.375c1.62064,0 4.43308,-2.81244 4.43308,-4.43309l-0.0039,-5.02158c0,-1.62064 -2.80865,-4.25599 -4.42929,-4.25599l-5.02148,0.0039c-1.62064,0 -4.25598,2.80864 -4.25598,4.42928l0.0039,5.02142c0,1.62064 2.63155,4.25216 4.25219,4.25216zM242.34888,194.90943c1.62064,0 4.43308,-2.81238 4.43308,-4.43302l-0.00016,-23.95494c0,-1.62064 -2.8123,-4.39647 -4.43294,-4.39647l-5.02156,0.0039c-1.62064,0 -4.25599,2.80858 -4.25599,4.42922l0.00016,23.95477c0,1.62064 2.63521,4.39264 4.25585,4.39264z" fill="url(#color-1)" stroke="url(#color-2)" stroke-width="3.5" stroke-linejoin="round"/></g></g></svg>