<svg xmlns="http://www.w3.org/2000/svg" xmlns:xlink="http://www.w3.org/1999/xlink" width="100" height="100" viewBox="0,0,100,100"><defs><linearGradient x1="227.87883" y1="134.76316" x2="252.12117" y2="225.23683" gradientUnits="userSpaceOnUse" id="color-1"><stop offset="0" stop-color="#292929"/><stop offset="0.47754" stop-color="#000"/></linearGradient></defs><g transform="translate(-190,-130)"><g stroke="none" stroke-width="0" stroke-miterlimit="10"><path d="M190,230v-100h100v100z" fill="none"/><path d="M209.75241,165.01075c0,-16.70529 13.54231,-30.24759 30.24759,-30.24759c16.70529,0 30.24759,13.54231 30.24759,30.24759c-0.69534,24.5678 -30.24759,60.22608 -30.24759,60.22608c0,0 -29.90633,-35.30421 -30.24759,-60.22608zM229.5698,165.01075c0,5.76045 4.66976,10.4302 10.4302,10.4302c5.76045,0 10.4302,-4.66976 10.4302,-10.4302c0,-5.76045 -4.66976,-10.4302 -10.4302,-10.4302c-5.76045,0 -10.4302,4.66976 -10.4302,10.4302" fill="url(#color-1)"/></g></g></svg>