<svg xmlns="http://www.w3.org/2000/svg" xmlns:xlink="http://www.w3.org/1999/xlink" width="100" height="100" viewBox="0,0,100,100"><defs><linearGradient x1="230.11031" y1="137.68438" x2="249.88971" y2="211.5021" gradientUnits="userSpaceOnUse" id="color-1"><stop offset="0" stop-color="#292929"/><stop offset="0.47754" stop-color="#000"/></linearGradient><linearGradient x1="234.76891" y1="184.48278" x2="244.06567" y2="219.17874" gradientUnits="userSpaceOnUse" id="color-2"><stop offset="0" stop-color="#292929"/><stop offset="0.47754" stop-color="#000"/></linearGradient></defs><g transform="translate(-190,-130)"><g stroke-miterlimit="10"><path d="M190,230v-100h100v100z" fill="none" stroke="none" stroke-width="0"/><path d="M190,230v-100h100v100z" fill="none" stroke="none" stroke-width="0"/><path d="M195.1687,185.63737c0,-7.17426 5.81589,-12.99015 12.99015,-12.99015c7.17426,0 12.99015,5.81589 12.99015,12.99015c-0.29862,10.5509 -12.99015,25.86473 -12.99015,25.86473c0,0 -12.84359,-15.16177 -12.99015,-25.86473zM203.67949,185.63737c0,2.47223 2.00548,4.47936 4.47936,4.47936c2.47389,0 4.47936,-2.00548 4.47936,-4.47936c0,-2.47389 -1.89684,-4.47936 -4.47936,-4.47936c-2.58252,0 -4.47936,2.00713 -4.47936,4.47936zM258.85101,150.67453c0,-7.17426 5.81589,-12.99015 12.99015,-12.99015c7.17426,0 12.99015,5.81589 12.99015,12.99015c-0.29862,10.5509 -12.99015,25.86473 -12.99015,25.86473c0,0 -12.84359,-15.16177 -12.99015,-25.86473zM267.36179,150.67453c0,2.47223 2.00548,4.47936 4.47936,4.47936c2.47388,0 4.47936,-2.00548 4.47936,-4.47936c0,-2.47388 -1.89684,-4.47936 -4.47936,-4.47936c-2.58252,0 -4.47936,2.00713 -4.47936,4.47936z" fill="url(#color-1)" stroke="none" stroke-width="0"/><path d="M279.37482,184.54678c0,0 -46.26519,-1.38594 -49.94691,8.74071c-3.67712,10.11402 46.68419,8.00717 46.20089,16.23275c-0.6595,11.22444 -76.16904,9.57316 -76.16904,9.57316" fill="none" stroke="url(#color-2)" stroke-width="5"/><path d="M279.37482,184.54678c0,0 -41.55987,-1.07225 -45.24159,9.0544c-3.67712,10.11402 36.95986,8.32085 36.47656,16.54643c2.44501,3.92262 -22.46437,7.77543 -42.30819,8.78224c-14.76107,0.74892 -28.84184,0.16355 -28.84184,0.16355" fill="none" stroke="#000" stroke-width="5"/></g></g></svg>