<svg xmlns="http://www.w3.org/2000/svg" xmlns:xlink="http://www.w3.org/1999/xlink" width="100" height="100" viewBox="0,0,100,100"><defs><linearGradient x1="228.14325" y1="135.75" x2="251.85675" y2="224.25" gradientUnits="userSpaceOnUse" id="color-1"><stop offset="0" stop-color="#292929"/><stop offset="0.47754" stop-color="#000"/></linearGradient></defs><g transform="translate(-190,-130)"><g stroke="none" stroke-width="0" stroke-miterlimit="10"><path d="M190,230v-100h100v100z" fill="none"/><path d="" fill="#000"/><path d="M195.75,180c0,-24.4386 19.8114,-44.25 44.25,-44.25c24.4386,0 44.25,19.8114 44.25,44.25c0,24.4386 -19.8114,44.25 -44.25,44.25c-24.4386,0 -44.25,-19.8114 -44.25,-44.25zM220.20101,204.51304c1.95262,1.95262 5.11845,1.95262 7.07107,0l12.72792,-12.72792l12.72792,12.72792c1.95262,1.95262 5.11845,1.95262 7.07107,0l4.71404,-4.71404c1.95262,-1.95262 1.95262,-5.11845 0,-7.07107l-12.72792,-12.72792l12.72792,-12.72792c1.95262,-1.95262 1.95262,-5.11845 0,-7.07107l-4.71405,-4.71405c-1.95262,-1.95262 -5.11845,-1.95262 -7.07107,0l-12.72792,12.72792l-12.72792,-12.72792c-1.95262,-1.95262 -5.11845,-1.95262 -7.07107,0l-4.71404,4.71404c-1.95262,1.95262 -1.95262,5.11845 0,7.07107l12.72792,12.72792l-12.72792,12.72792c-1.95262,1.95262 -1.95262,5.11845 0,7.07107z" fill="url(#color-1)"/></g></g></svg>