<svg xmlns="http://www.w3.org/2000/svg" xmlns:xlink="http://www.w3.org/1999/xlink" width="100" height="100" viewBox="0,0,100,100"><defs><linearGradient x1="228.14325" y1="135.75" x2="251.85675" y2="224.25" gradientUnits="userSpaceOnUse" id="color-1"><stop offset="0" stop-color="#292929"/><stop offset="0.47754" stop-color="#000"/></linearGradient></defs><g transform="translate(-190,-130)"><g stroke="none" stroke-width="0" stroke-miterlimit="10"><path d="M190,230v-100h100v100z" fill="none"/><path d="" fill="#000"/><path d="M195.75,180c0,-24.4386 19.8114,-44.25 44.25,-44.25c24.4386,0 44.25,19.8114 44.25,44.25c0,24.4386 -19.8114,44.25 -44.25,44.25c-24.4386,0 -44.25,-19.8114 -44.25,-44.25zM241.66666,167.16667c2.76143,0 5,-2.23857 5,-5v-3.33333c0,-2.76143 -2.23857,-5 -5,-5h-3.33333c-2.76142,0 -5,2.23857 -5,5v3.33333c0,2.76143 2.23858,5 5,5zM241.66666,206.16667c2.76143,0 5,-2.23857 5,-5v-22.66666c0,-2.76143 -2.23857,-5 -5,-5h-3.33333c-2.76142,0 -5,2.23857 -5,5v22.66666c0,2.76143 2.23858,5 5,5z" fill="url(#color-1)"/><path d="" fill="#000"/></g></g></svg>