<svg xmlns="http://www.w3.org/2000/svg" xmlns:xlink="http://www.w3.org/1999/xlink" width="100" height="104.89124" viewBox="0,0,100,104.89124"><g transform="translate(-190,-130)"><g stroke-miterlimit="10"><path d="M201.58333,173.76044c0,-21.21694 17.19972,-38.41667 38.41667,-38.41667c21.21694,0 38.41667,17.19972 38.41667,38.41667c0,17.91404 -12.26148,32.96424 -28.84974,37.21594c-1.73485,2.59091 -6.76374,10.10133 -8.77246,13.10125c-0.52472,0.78364 -1.2051,0.71924 -1.60731,0.11856v0.00001c-1.02916,-1.537 -5.6578,-8.44965 -8.5032,-12.69913c-0.12459,-0.18608 -0.23613,-0.36704 -0.33457,-0.54223c-16.5458,-4.2808 -28.76605,-19.31049 -28.76605,-37.19439z" fill="none" stroke-opacity="0.4" stroke="#000" stroke-width="6.5"/><path d="M190,230v-100h100v100z" fill="none" stroke="none" stroke-width="0"/><path d="" fill="#000" stroke="none" stroke-width="0"/><path d="M201.58334,173.76044c0,-21.21695 17.19972,-38.41666 38.41666,-38.41666c21.21695,0 38.41667,17.19972 38.41667,38.41666c0,17.91404 -12.26148,32.96424 -28.84974,37.21594c-1.73485,2.59091 -6.76374,10.10133 -8.77246,13.10125c-0.52472,0.78364 -1.2051,0.71925 -1.60731,0.11856v0c-1.02916,-1.537 -5.6578,-8.44966 -8.50321,-12.69913c-0.12459,-0.18607 -0.23613,-0.36704 -0.33456,-0.54223c-16.5458,-4.2808 -28.76604,-19.3105 -28.76604,-37.19439z" fill="#42b2ff" stroke="none" stroke-width="0"/><path d="M208.03499,173.76044c0,-17.65379 14.31122,-31.96501 31.96501,-31.96501c17.65379,0 31.96501,14.31123 31.96501,31.96501c0,17.65379 -14.31122,31.96501 -31.96501,31.96501c-17.65379,0 -31.96501,-14.31122 -31.96501,-31.96501z" fill="#fff" stroke="none" stroke-width="0"/><g fill="none" stroke="#42b2ff" stroke-width="2.5"><path d="M240.00011,156.20171v27.50765M240.00011,190.58628v-6.87691M240.00011,183.70936l5.15769,5.15769M240.00011,183.70936l-5.15769,5.15769M245.1578,157.92094l-5.15769,5.15769l-5.15769,-5.15769"/><path d="M231.06681,168.23703l-5.9556,-3.43845M248.93357,178.55236l-17.86676,-10.31533M229.17896,161.1915l1.88785,7.04554M224.02128,170.12488l7.04554,-1.88785M254.88915,181.99083l-5.95558,-3.43845M255.97913,176.66448l-7.04557,1.88788M250.82145,185.59794l-1.88788,-7.04557"/><path d="M248.93305,168.23702l5.95558,-3.43845M231.06638,178.55236l17.86667,-10.31533M250.82093,161.19149l-1.88788,7.04554M255.97862,170.12488l-7.04557,-1.88785M225.11081,181.99081l5.95558,-3.43845M224.02087,176.66448l7.04552,1.88788M229.17856,185.59793l1.88783,-7.04557"/></g></g></g></svg>